<?xml version="1.0" encoding="UTF-8" standalone="no"?>
<!-- Created with Inkscape (http://www.inkscape.org/) -->

<svg
   width="32"
   height="32"
   viewBox="0 0 32 32"
   version="1.1"
   id="svg5"
   sodipodi:docname="kg-card-type-math.svg"
   inkscape:version="1.2.2 (b0a8486541, 2022-12-01)"
   xmlns:inkscape="http://www.inkscape.org/namespaces/inkscape"
   xmlns:sodipodi="http://sodipodi.sourceforge.net/DTD/sodipodi-0.dtd"
   xmlns="http://www.w3.org/2000/svg"
   xmlns:svg="http://www.w3.org/2000/svg">
  <sodipodi:namedview
     id="namedview7"
     pagecolor="#505050"
     bordercolor="#eeeeee"
     borderopacity="1"
     inkscape:showpageshadow="0"
     inkscape:pageopacity="0"
     inkscape:pagecheckerboard="0"
     inkscape:deskcolor="#505050"
     inkscape:document-units="px"
     showgrid="false"
     inkscape:zoom="11.313709"
     inkscape:cx="3.4471456"
     inkscape:cy="14.805048"
     inkscape:window-width="1504"
     inkscape:window-height="744"
     inkscape:window-x="26"
     inkscape:window-y="23"
     inkscape:window-maximized="0"
     inkscape:current-layer="layer2" />
  <defs
     id="defs2">
    <inkscape:path-effect
       effect="offset"
       id="path-effect2017"
       is_visible="true"
       lpeversion="1.2"
       linejoin_type="miter"
       unit="mm"
       offset="0.05"
       miter_limit="4"
       attempt_force_join="false"
       update_on_knot_move="true" />
    <inkscape:path-effect
       effect="offset"
       id="path-effect2015"
       is_visible="true"
       lpeversion="1.2"
       linejoin_type="miter"
       unit="mm"
       offset="0.05"
       miter_limit="4"
       attempt_force_join="false"
       update_on_knot_move="true" />
    <inkscape:path-effect
       effect="offset"
       id="path-effect2013"
       is_visible="true"
       lpeversion="1.2"
       linejoin_type="miter"
       unit="mm"
       offset="0.05"
       miter_limit="4"
       attempt_force_join="false"
       update_on_knot_move="true" />
  </defs>
  <g
     inkscape:label="Layer 1"
     inkscape:groupmode="layer"
     id="layer1">
    <rect
       style="fill:#008080;fill-opacity:1;stroke-width:1.39314"
       id="rect240"
       width="32"
       height="32"
       x="0"
       y="0"
       ry="4.679378"
       inkscape:label="rect240" />
  </g>
  <g
     inkscape:groupmode="layer"
     id="layer2"
     inkscape:label="Layer 2"
     transform="translate(-0.33488805,-0.728243)">
    <path
       d="m 3.8886719,10.480469 -0.2832031,3.517578 h 0.7148437 l 0.013672,-0.173828 c 0.1918529,-2.206303 0.3671323,-2.544922 2.3359375,-2.544922 0.2524961,0 0.6099074,0.0013 0.7207031,0.02344 0.1375562,0.0262 0.140625,0.02578 0.140625,0.347657 v 7.359375 c 0,0.238162 -0.00862,0.304342 -0.091797,0.353515 -0.1474522,0.08717 -0.4596879,0.13086 -1.1914062,0.13086 h -0.75 v 0.826171 l 0.203125,-0.01562 c 0.5633471,-0.04122 1.9781237,-0.03906 2.6230469,-0.03906 0.6449247,0 2.0852922,-0.0021 2.6484372,0.03906 l 0.203125,0.01562 v -0.826171 h -0.75 c -0.731718,0 -1.0445268,-0.0438 -1.191406,-0.13086 -0.082458,-0.04888 -0.089844,-0.114999 -0.089844,-0.353515 v -7.359375 c 0,-0.280627 -8.548e-4,-0.326054 0.095703,-0.347657 0.12716,-0.02312 0.4991214,-0.02344 0.7656246,-0.02344 1.954802,0 2.130392,0.338382 2.322266,2.544922 l 0.01367,0.173828 h 0.728515 l -0.296874,-3.517578 z"
       id="path2011"
       style="fill:#ffffff;stroke-width:1.4018"
       inkscape:path-effect="#path-effect2017"
       inkscape:original-d="M 12.599122,10.669349 H 4.0622311 c 0,0 -0.252322,3.140007 -0.252322,3.140007 h 0.3364288 c 0.1962509,-2.256879 0.4065195,-2.719469 2.5232187,-2.719469 0.2523221,0 0.6167882,0 0.7569662,0.02804 0.2943754,0.05607 0.2943754,0.210268 0.2943754,0.532679 v 7.359389 c 0,0.476607 0,0.672858 -1.4718771,0.672858 H 5.6883058 v 0.434555 c 0.5747331,-0.04205 1.990539,-0.04205 2.635361,-0.04205 0.6448238,0 2.0886652,0 2.6633982,0.04205 V 19.68285 H 10.42635 c -1.4718772,0 -1.4718772,-0.196251 -1.4718772,-0.672858 v -7.359389 c 0,-0.280357 0,-0.476608 0.2523221,-0.53268 0.154196,-0.02804 0.53268,-0.02804 0.7990191,-0.02804 2.102682,0 2.31295,0.462591 2.509201,2.71947 h 0.350447 c 0,0 -0.26634,-3.140007 -0.26634,-3.140007 z" />
    <path
       d="m 11.289062,13.591797 v 0.798828 h 0.511719 c 0.638098,0 0.826311,0.06382 0.875,0.130859 0.03846,0.05296 0.04297,0.140087 0.04297,0.339844 v 7.316406 c 0,0.199757 -0.0047,0.285383 -0.04297,0.337891 -0.04837,0.06635 -0.236786,0.130859 -0.875,0.130859 h -0.511719 v 0.814454 h 8.394532 l 0.652344,-3.982422 h -0.734376 l -0.02539,0.158203 c -0.346498,2.120572 -0.635599,3.009765 -2.884766,3.009765 h -1.849609 c -0.486811,0 -0.498047,0.01981 -0.498047,-0.371093 v -3.539063 h 1.058594 c 1.208894,0 1.324218,0.318654 1.324218,1.451172 v 0.189453 h 0.730469 v -4.080078 h -0.730469 v 0.189453 c 0,1.131502 -0.113253,1.4375 -1.324218,1.4375 H 14.34375 v -3.162109 c 0,-0.390895 0.01124,-0.371094 0.498047,-0.371094 h 1.794922 c 2.008652,0 2.326645,0.656455 2.544922,2.552734 l 0.01953,0.167969 h 0.734375 l -0.441406,-3.519531 z"
       id="path2008"
       style="fill:#ffffff;stroke-width:1.4018"
       inkscape:path-effect="#path-effect2015"
       inkscape:original-d="M 20.112708,19.668831 H 19.76226 c -0.350446,2.144736 -0.672857,3.168042 -3.069916,3.168042 h -1.850361 c -0.65884,0 -0.686875,-0.09813 -0.686875,-0.560716 V 18.5474 h 1.24759 c 1.359735,0 1.513933,0.448573 1.513933,1.640093 h 0.350446 v -3.700722 h -0.350446 c 0,1.191521 -0.154198,1.626074 -1.513933,1.626074 h -1.24759 v -3.350273 c 0,-0.462589 0.02804,-0.560716 0.686875,-0.560716 h 1.79429 c 2.144735,0 2.509201,0.770984 2.733487,2.71947 h 0.350447 l -0.392501,-3.140005 h -7.850015 v 0.420535 h 0.322411 c 1.079378,0 1.107413,0.154198 1.107413,0.658842 v 7.317334 c 0,0.504644 -0.02804,0.658841 -1.107413,0.658841 h -0.322411 v 0.434553 h 8.046265 z" />
    <path
       d="m 23.273438,10.378906 -0.207032,0.01953 c -0.464694,0.041 -1.48087,0.03906 -2.013672,0.03906 -0.432671,0 -1.297946,-0.01321 -1.8125,-0.04102 l -0.199218,-0.0098 v 0.808593 h 0.455078 c 0.739044,0 0.928607,0.08612 1.144531,0.404297 l 2.498047,3.779297 -2.212891,3.271485 c -0.206725,0.295327 -0.579459,0.84375 -1.865234,0.84375 h -0.189453 v 0.8125 h 3.716797 v -0.808594 l -0.185547,-0.0039 c -0.567048,-0.01233 -0.699219,-0.332001 -0.699219,-0.457032 0,-0.06251 0.0087,-0.07526 0.107422,-0.230468 l 1.818359,-2.695313 2.058594,3.101563 c 0.01003,0.01846 0.02132,0.03866 0.0293,0.05273 -0.0044,0.0059 -0.156299,0.215526 -0.714844,0.228516 l -0.185547,0.0039 v 0.824219 l 0.205078,-0.01758 c 0.479372,-0.04109 1.496838,-0.03906 2.015625,-0.03906 0.58632,0 1.227056,0.01314 1.8125,0.04102 l 0.199219,0.0078 V 19.494141 H 28.59375 c -0.704282,0 -0.922019,-0.06841 -1.160156,-0.419922 l -2.873047,-4.351563 1.849609,-2.703125 c 0.264674,-0.403312 0.682658,-0.810953 1.863282,-0.824219 l 0.1875,-0.002 v -0.796875 h -3.714844 v 0.792969 l 0.185547,0.0059 c 0.489071,0.01223 0.683593,0.26072 0.683593,0.455079 0,0.08835 0.0083,0.05635 -0.09375,0.216797 l -1.439453,2.123046 -1.640625,-2.458984 c -0.02158,-0.03237 -0.06445,-0.105469 -0.06445,-0.105469 0,0 0.159126,-0.21733 0.710938,-0.230469 l 0.185547,-0.0059 z"
       id="path2005"
       style="fill:#ffffff;stroke-width:1.4018"
       inkscape:path-effect="#path-effect2013"
       inkscape:original-d="m 24.33209,14.720518 1.92045,-2.803576 c 0.294376,-0.448573 0.770984,-0.897144 2.018576,-0.911162 V 10.585243 H 24.93486 v 0.420537 c 0.560715,0.01402 0.869108,0.322411 0.869108,0.644822 0,0.140178 -0.02804,0.168214 -0.126161,0.322411 0,0 -1.598039,2.355005 -1.598039,2.355005 L 22.28548,11.636584 c -0.02804,-0.04205 -0.09813,-0.154197 -0.09813,-0.210268 0,-0.168216 0.308394,-0.406518 0.897145,-0.420536 v -0.420537 c -0.476608,0.04205 -1.499914,0.04205 -2.032593,0.04205 -0.434554,0 -1.303663,-0.01402 -1.822325,-0.04205 v 0.420537 h 0.266339 c 0.770984,0 1.037324,0.09812 1.303664,0.490625 0,0 2.565273,3.882953 2.565273,3.882953 l -2.284915,3.378311 c -0.196247,0.280358 -0.616783,0.92518 -2.018572,0.92518 v 0.434555 h 3.336257 v -0.434555 c -0.644823,-0.01402 -0.883127,-0.3925 -0.883127,-0.644822 0,-0.126162 0.04205,-0.182234 0.140179,-0.336429 l 1.976521,-2.929738 2.214826,3.336256 c 0.02804,0.05607 0.07009,0.112142 0.07009,0.154197 0,0.168214 -0.308393,0.406518 -0.911162,0.420536 v 0.434555 c 0.490626,-0.04205 1.513931,-0.04205 2.032593,-0.04205 0.588751,0 1.233574,0.01402 1.822324,0.04205 v -0.434555 h -0.266339 c -0.72893,0 -1.023305,-0.07009 -1.317681,-0.504644 0,0 -2.943756,-4.457687 -2.943757,-4.457687 z" />
  </g>
</svg>
